<svg xmlns="http://www.w3.org/2000/svg" viewBox="0 0 466 288.24">
  <defs>
    <style>
      .cls-1 {
        fill: #242424;
        fill-rule: evenodd;
      }
    </style>
  </defs>
  <g>
    <path class="cls-1" d="M232.56,70,211.31,91.29l.89.89c17.47,17.46,26.2,26.19,29.81,36.12a47.6,47.6,0,0,1,0,32.53c-3.61,9.93-12.34,18.67-29.81,36.13l21.24,21.24,19.43-19.43c19.18-19.17,28.76-28.76,32.27-39.85a47.67,47.67,0,0,0,0-28.71c-3.51-11.09-13.09-20.68-32.27-39.85Zm0,0L197.88,35.37C178.71,16.2,169.12,6.61,158,3.11a47.55,47.55,0,0,0-28.72,0c-11.09,3.5-20.67,13.09-39.85,32.26l-55,55C15.31,109.53,5.72,119.12,2.22,130.21a47.52,47.52,0,0,0,0,28.71C5.72,170,15.31,179.6,34.48,198.77l55,55c19.18,19.17,28.76,28.76,39.85,32.27A47.71,47.71,0,0,0,158,286c11.08-3.51,20.67-13.1,39.84-32.27l35.56-35.56,34.68,34.67c19.17,19.18,28.76,28.76,39.84,32.27a47.71,47.71,0,0,0,28.72,0c11.09-3.51,20.67-13.09,39.85-32.27l55-55c19.17-19.17,28.76-28.76,32.26-39.84a47.55,47.55,0,0,0,0-28.72c-3.5-11.09-13.09-20.67-32.26-39.85l-55-55C357.35,15.31,347.77,5.72,336.68,2.22a47.55,47.55,0,0,0-28.72,0c-11.08,3.5-20.67,13.09-39.84,32.26ZM211.31,91.29h0c-17.46,17.46-26.19,26.19-29.8,36.12a47.6,47.6,0,0,0,0,32.53c3.61,9.93,12.34,18.67,29.8,36.13l.89.89-14.32,14.32C178.71,230.45,169.12,240,158,243.54a47.55,47.55,0,0,1-28.72,0c-11.09-3.5-20.67-13.09-39.85-32.26L77,198.77C57.79,179.6,48.21,170,44.7,158.92a47.67,47.67,0,0,1,0-28.71C48.21,119.12,57.79,109.53,77,90.36l12.5-12.5c19.18-19.18,28.76-28.76,39.85-32.27a47.55,47.55,0,0,1,28.72,0c11.08,3.51,20.67,13.09,39.84,32.27Z"/>
  </g>
</svg>
